<?xml version="1.0" encoding="UTF-8"?>
<svg width="76px" height="26px" viewBox="0 0 76 26" version="1.1" xmlns="http://www.w3.org/2000/svg" xmlns:xlink="http://www.w3.org/1999/xlink">
    <!-- Generator: Sketch 64 (93537) - https://sketch.com -->
    <title>logo-planit</title>
    <desc>Created with Sketch.</desc>
    <g id="Page-1" stroke="none" stroke-width="1" fill="none" fill-rule="evenodd">
        <g id="source" transform="translate(0.000000, -46.000000)" fill="#009BE0">
            <g id="logo-planit" transform="translate(0.000000, 46.000000)">
                <path d="M4.53684172,9.72308235 L4.53684172,17.8294745 C5.01471907,18.4208471 5.60876829,18.8985333 6.32406241,19.2594745 C7.03682003,19.6204157 7.73841702,19.7993569 8.4288534,19.7993569 C9.70167109,19.7993569 10.7507691,19.247749 11.5741183,18.1363765 C12.400004,17.0280627 12.8124395,15.6184549 12.8124395,13.8983765 C12.8124395,12.1930824 12.3969602,10.8033569 11.5680307,9.7286902 C10.7396085,8.65810196 9.66463813,8.12331765 8.34109036,8.12331765 C7.74146083,8.12331765 7.12762687,8.25739608 6.49400818,8.52402353 C5.86343329,8.79116078 5.21002987,9.18931765 4.53684172,9.72308235 M4.53684172,20.1720235 L4.53684172,22.3657098 C4.53684172,23.3893961 4.67279833,24.0572392 4.94420426,24.3758667 C5.21561018,24.6909255 5.78125056,24.8499843 6.64670572,24.8499843 L6.80498356,24.8499843 L6.80498356,25.6264157 L5.07300793e-05,25.6264157 L5.07300793e-05,24.8499843 L0.113178807,24.8499843 C0.995882186,24.8499843 1.57521969,24.6909255 1.85220592,24.3758667 C2.12969946,24.0572392 2.26819257,23.3893961 2.26819257,22.3657098 L2.26819257,11.5221804 C2.26819257,10.3654353 2.18651715,9.61755294 2.02215169,9.27751373 C1.85829353,8.93900392 1.43114627,8.6239451 0.741217188,8.33641569 L0.0137478515,8.02951373 L0.0137478515,7.84241569 L4.53684172,6.11978824 L4.53684172,8.67798431 C5.44186633,7.82508235 6.3184821,7.18527843 7.17277664,6.75959216 C8.02707117,6.33288627 8.85295686,6.11978824 9.65043371,6.11978824 C11.2854642,6.11978824 12.6287967,6.76214118 13.6839823,8.04939608 C14.7386607,9.33461176 15.2677754,10.9710824 15.2677754,12.9491216 C15.2677754,15.2345725 14.572266,17.0907686 13.1776961,18.514651 C11.7887065,19.9441412 9.97003321,20.6548078 7.7272564,20.6548078 C7.2098096,20.6548078 6.68627518,20.6150431 6.15158014,20.5355137 C5.61739241,20.4529255 5.07965357,20.3305725 4.53684172,20.1720235" id="Fill-1"></path>
                <path d="M21.1734668,0 L21.1734668,17.0223529 C21.1734668,18.0485882 21.3063796,18.7164314 21.5752491,19.032 C21.846655,19.3475686 22.4067151,19.5066275 23.2635461,19.5066275 L23.4192874,19.5066275 L23.4192874,20.282549 L16.6762453,20.282549 L16.6762453,19.5066275 L16.8857605,19.5066275 C17.7283872,19.5066275 18.2798231,19.3475686 18.5375319,19.032 C18.7947334,18.7164314 18.9246024,18.0485882 18.9246024,17.0223529 L18.9246024,5.43756863 C18.9246024,4.24921569 18.8459708,3.49317647 18.6871856,3.172 C18.5289078,2.85082353 18.0905999,2.52964706 17.3717547,2.20847059 L16.6904497,1.91023529 L16.6904497,1.72262745 L21.1734668,0 Z" id="Fill-4"></path>
                <path d="M41.6498009,9.72583529 L41.6498009,17.0226588 C41.6498009,18.0483843 41.7796699,18.7167373 42.0454955,19.0317961 C42.3087846,19.3473647 42.874425,19.5069333 43.7368364,19.5069333 L43.8951142,19.5069333 L43.8951142,20.2823451 L37.1520721,20.2823451 L37.1520721,19.5069333 L37.3727479,19.5069333 C38.1986336,19.5069333 38.7444893,19.3473647 39.0077784,19.0317961 C39.2680237,18.7167373 39.3984,18.0483843 39.3984,17.0226588 L39.3984,11.4708941 C39.3984,10.3340314 39.3187538,9.60654118 39.1604759,9.28893333 C39.0016908,8.96775686 38.5664267,8.65218824 37.8480888,8.33661961 L37.16374,8.02971765 L37.16374,7.8421098 L41.6498009,6.11948235 L41.6498009,8.95348235 C42.6085994,7.99861961 43.5217408,7.28489412 44.382123,6.80771765 C45.2414905,6.33003137 46.0506353,6.09144314 46.8115865,6.09144314 C47.9032978,6.09144314 48.8027421,6.47481569 49.5124559,7.24258039 C50.2449982,8.02665882 50.6127913,9.45105098 50.6127913,11.5193255 L50.6127913,17.0226588 C50.6127913,18.0483843 50.7457041,18.7167373 51.0115297,19.0317961 C51.2778627,19.3473647 51.8374154,19.5069333 52.6891735,19.5069333 L52.8616557,19.5069333 L52.8616557,20.2823451 L46.1186136,20.2823451 L46.1186136,19.5069333 L46.3022565,19.5069333 C47.1540145,19.5069333 47.7105235,19.3473647 47.9712761,19.0261882 C48.2340579,18.7075608 48.3639269,18.0402275 48.3639269,17.0226588 L48.3639269,11.4739529 C48.3639269,10.254502 48.1691234,9.37407059 47.7785018,8.83163922 C47.3888948,8.28818824 46.7547688,8.01850196 45.8720654,8.01850196 C45.2303299,8.01850196 44.5571418,8.15767843 43.8530083,8.44163922 C43.1483675,8.72356078 42.4132886,9.15230588 41.6498009,9.72583529" id="Fill-6"></path>
                <path d="M63.8769315,6.17362353 L63.8769315,17.022251 C63.8769315,18.0398196 64.0103516,18.7076627 64.2756699,19.0262902 C64.538959,19.3474667 65.0909023,19.5065255 65.9304851,19.5065255 L66.1257959,19.5065255 L66.1257959,20.2824471 L59.3827538,20.2824471 L59.3827538,19.5065255 L59.6257509,19.5065255 C60.4460562,19.5065255 60.9837951,19.3474667 61.2409966,19.031898 C61.5012419,18.7168392 61.6280671,18.0484863 61.6280671,17.022251 L61.6280671,11.6020157 C61.6280671,10.3626824 61.5605961,9.60103529 61.422103,9.31758431 C61.2836098,9.03311373 60.8168931,8.70887843 60.0163725,8.33672157 L59.3939144,8.02981961 L59.3939144,7.84221176 L63.8769315,6.17362353 Z" id="Fill-8"></path>
                <path d="M75.7905355,18.6822745 L75.7905355,19.8048627 C74.7977479,20.3763529 73.7567666,20.6608235 72.6680991,20.6608235 C71.3014308,20.6608235 70.3258914,20.2402353 69.7399589,19.4016078 C69.1550411,18.5629804 68.8608067,17.1559216 68.8608067,15.1834902 L68.8608067,7.44721569 L66.6687599,7.44721569 L71.1122076,2.99305882 L71.1122076,6.49796078 L75.3943336,6.49796078 L75.3943336,7.4614902 L71.1122076,7.4614902 L71.1122076,14.7741176 C71.1122076,16.3912157 71.3212155,17.5678431 71.7427825,18.3045098 C72.1643494,19.0376078 72.8350011,19.4041569 73.7593031,19.4041569 C74.2544287,19.4041569 74.9306607,19.1655686 75.7905355,18.6822745" id="Fill-10"></path>
                <polygon id="Fill-13" points="56.2901974 0.599631373 58.7313288 0.599631373 53.6395508 5.36629804"></polygon>
                <path d="M32.3655877,18.0997725 C31.5878955,18.9832627 30.7447616,19.4242431 29.8311129,19.4242431 C29.2852572,19.4242431 28.8104237,19.2024784 28.4055977,18.7558902 C27.9987424,18.3098118 27.7948075,17.7872627 27.7948075,17.1816157 C27.7948075,16.257851 28.0920858,15.5497333 28.6830912,15.0608314 C29.2771404,14.5693804 30.5185055,14.0177725 32.416825,13.4039686 L33.1092906,13.1765961 L33.1488601,13.3157725 C33.1463236,13.3417725 33.1463236,13.3672627 33.1463236,13.3927529 C33.1463236,14.3165176 33.2706123,15.1689098 33.519697,15.950949 C33.1209585,17.3151843 32.3655877,18.0997725 32.3655877,18.0997725 L32.3655877,18.0997725 Z M34.9629677,8.24322353 C34.8128067,7.71251765 34.5774191,7.28479216 34.2436152,6.96922353 C33.6414491,6.40385098 32.6938113,6.09949804 31.5173807,6.11938039 C30.1481759,6.13977255 28.4228459,6.60267451 27.3225105,7.46985098 C26.2054341,8.35945882 25.6144287,9.19196863 25.6144287,10.1804784 L25.6144287,10.5500863 L28.114407,9.75173333 L28.114407,9.13283137 C28.114407,8.48181176 28.3518238,8.06938039 28.7170804,7.74820392 C29.0818296,7.42702745 29.5825355,7.18843922 30.3262385,7.18843922 C31.0420399,7.18843922 31.7177645,7.3418902 32.204266,7.71404706 C32.5238655,7.94447843 32.8323044,8.25698824 32.931228,8.5898902 C33.0276152,8.92483137 33.0783453,9.51620392 33.0783453,10.3624784 L33.0783453,12.4093412 L31.2287266,12.9007922 C29.0874099,13.5232627 27.6933474,14.1090275 26.7654942,14.827851 C25.8376411,15.5441255 25.2577962,16.4026353 25.2577962,17.4288706 C25.2577962,18.3551843 25.5489869,19.1260078 26.1318755,19.7398118 C26.7173006,20.3505569 27.4523795,20.6549098 28.3406632,20.6549098 C29.2203227,20.6549098 30.1228108,20.5182824 30.9147074,20.0492627 C31.7066039,19.5776941 33.2168384,18.2277333 33.8083511,16.9654588 L33.8732856,16.837498 C34.1543302,17.4232627 34.5206014,17.9595765 34.9629677,18.4500078 L34.9629677,8.24322353 Z" id="Fill-15"></path>
            </g>
        </g>
    </g>
</svg>