<?xml version="1.0" encoding="UTF-8"?>
<svg width="128px" height="46px" viewBox="0 0 128 46" version="1.1" xmlns="http://www.w3.org/2000/svg" xmlns:xlink="http://www.w3.org/1999/xlink">
    <!-- Generator: Sketch 64 (93537) - https://sketch.com -->
    <title>logo-admin</title>
    <desc>Created with Sketch.</desc>
    <defs>
        <polygon id="path-1" points="0 0.469824 11.513984 0.469824 11.513984 12.110144 0 12.110144"></polygon>
        <polygon id="path-3" points="0 15.847488 127.85408 15.847488 127.85408 -0.000192 0 -0.000192"></polygon>
    </defs>
    <g id="Page-1" stroke="none" stroke-width="1" fill="none" fill-rule="evenodd">
        <g id="source">
            <g id="logo-admin">
                <g id="logo-planit" transform="translate(0.000000, 0.000000)" fill="#009BE0">
                    <path d="M4.55922745,9.72308235 L4.55922745,17.8294745 C5.03946275,18.4208471 5.63644314,18.8985333 6.35526667,19.2594745 C7.07154118,19.6204157 7.7766,19.7993569 8.47044314,19.7993569 C9.74954118,19.7993569 10.8038157,19.247749 11.6312275,18.1363765 C12.4611882,17.0280627 12.8756588,15.6184549 12.8756588,13.8983765 C12.8756588,12.1930824 12.4581294,10.8033569 11.6251098,9.7286902 C10.7926,8.65810196 9.71232549,8.12331765 8.38224706,8.12331765 C7.77965882,8.12331765 7.16279608,8.25739608 6.52605098,8.52402353 C5.89236471,8.79116078 5.23573725,9.18931765 4.55922745,9.72308235 M4.55922745,20.1720235 L4.55922745,22.3657098 C4.55922745,23.3893961 4.6958549,24.0572392 4.9686,24.3758667 C5.2413451,24.6909255 5.80977647,24.8499843 6.67950196,24.8499843 L6.83856078,24.8499843 L6.83856078,25.6264157 L5.09803922e-05,25.6264157 L5.09803922e-05,24.8499843 L0.113737255,24.8499843 C1.00079608,24.8499843 1.58299216,24.6909255 1.8613451,24.3758667 C2.14020784,24.0572392 2.27938431,23.3893961 2.27938431,22.3657098 L2.27938431,11.5221804 C2.27938431,10.3654353 2.19730588,9.61755294 2.03212941,9.27751373 C1.86746275,8.93900392 1.43820784,8.6239451 0.74487451,8.33641569 L0.0138156863,8.02951373 L0.0138156863,7.84241569 L4.55922745,6.11978824 L4.55922745,8.67798431 C5.46871765,7.82508235 6.34965882,7.18527843 7.20816863,6.75959216 C8.06667843,6.33288627 8.89663922,6.11978824 9.69805098,6.11978824 C11.341149,6.11978824 12.6911098,6.76214118 13.751502,8.04939608 C14.8113843,9.33461176 15.3431098,10.9710824 15.3431098,12.9491216 C15.3431098,15.2345725 14.6441686,17.0907686 13.2427176,18.514651 C11.8468745,19.9441412 10.0192275,20.6548078 7.76538431,20.6548078 C7.24538431,20.6548078 6.71926667,20.6150431 6.18193333,20.5355137 C5.6451098,20.4529255 5.10471765,20.3305725 4.55922745,20.1720235" id="Fill-1"></path>
                    <path d="M21.2779412,0 L21.2779412,17.0223529 C21.2779412,18.0485882 21.4115098,18.7164314 21.6817059,19.032 C21.954451,19.3475686 22.5172745,19.5066275 23.3783333,19.5066275 L23.5348431,19.5066275 L23.5348431,20.282549 L16.7585294,20.282549 L16.7585294,19.5066275 L16.9690784,19.5066275 C17.8158627,19.5066275 18.3700196,19.3475686 18.629,19.032 C18.8874706,18.7164314 19.0179804,18.0485882 19.0179804,17.0223529 L19.0179804,5.43756863 C19.0179804,4.24921569 18.9389608,3.49317647 18.7793922,3.172 C18.6203333,2.85082353 18.1798627,2.52964706 17.4574706,2.20847059 L16.7728039,1.91023529 L16.7728039,1.72262745 L21.2779412,0 Z" id="Fill-4"></path>
                    <path d="M41.8553098,9.72583529 L41.8553098,17.0226588 C41.8553098,18.0483843 41.9858196,18.7167373 42.2529569,19.0317961 C42.5175451,19.3473647 43.0859765,19.5069333 43.9526431,19.5069333 L44.111702,19.5069333 L44.111702,20.2823451 L37.3353882,20.2823451 L37.3353882,19.5069333 L37.5571529,19.5069333 C38.3871137,19.5069333 38.9356627,19.3473647 39.200251,19.0317961 C39.4617804,18.7167373 39.5928,18.0483843 39.5928,17.0226588 L39.5928,11.4708941 C39.5928,10.3340314 39.5127608,9.60654118 39.353702,9.28893333 C39.1941333,8.96775686 38.7567216,8.65218824 38.0348392,8.33661961 L37.3471137,8.02971765 L37.3471137,7.8421098 L41.8553098,6.11948235 L41.8553098,8.95348235 C42.8188392,7.99861961 43.7364863,7.28489412 44.6011137,6.80771765 C45.4647216,6.33003137 46.2778588,6.09144314 47.0425647,6.09144314 C48.1396627,6.09144314 49.0435451,6.47481569 49.7567608,7.24258039 C50.4929176,8.02665882 50.8625255,9.45105098 50.8625255,11.5193255 L50.8625255,17.0226588 C50.8625255,18.0483843 50.9960941,18.7167373 51.2632314,19.0317961 C51.5308784,19.3473647 52.0931922,19.5069333 52.9491529,19.5069333 L53.1224863,19.5069333 L53.1224863,20.2823451 L46.3461725,20.2823451 L46.3461725,19.5069333 L46.5307216,19.5069333 C47.3866824,19.5069333 47.9459373,19.3473647 48.2079765,19.0261882 C48.4720549,18.7075608 48.6025647,18.0402275 48.6025647,17.0226588 L48.6025647,11.4739529 C48.6025647,10.254502 48.4068,9.37407059 48.014251,8.83163922 C47.6227216,8.28818824 46.9854667,8.01850196 46.0984078,8.01850196 C45.4535059,8.01850196 44.7769961,8.15767843 44.0693882,8.44163922 C43.3612706,8.72356078 42.6225647,9.15230588 41.8553098,9.72583529" id="Fill-6"></path>
                    <path d="M64.1921137,6.17362353 L64.1921137,17.022251 C64.1921137,18.0398196 64.3261922,18.7076627 64.5928196,19.0262902 C64.8574078,19.3474667 65.4120745,19.5065255 66.2558,19.5065255 L66.4520745,19.5065255 L66.4520745,20.2824471 L59.6757608,20.2824471 L59.6757608,19.5065255 L59.9199569,19.5065255 C60.7443098,19.5065255 61.284702,19.3474667 61.5431725,19.031898 C61.804702,18.7168392 61.9321529,18.0484863 61.9321529,17.022251 L61.9321529,11.6020157 C61.9321529,10.3626824 61.864349,9.60103529 61.7251725,9.31758431 C61.5859961,9.03311373 61.1169765,8.70887843 60.3125059,8.33672157 L59.6869765,8.02981961 L59.6869765,7.84221176 L64.1921137,6.17362353 Z" id="Fill-8"></path>
                    <path d="M76.164502,18.6822745 L76.164502,19.8048627 C75.1668157,20.3763529 74.120698,20.6608235 73.0266588,20.6608235 C71.6532471,20.6608235 70.6728941,20.2402353 70.0840706,19.4016078 C69.4962667,18.5629804 69.2005804,17.1559216 69.2005804,15.1834902 L69.2005804,7.44721569 L66.9977176,7.44721569 L71.4630902,2.99305882 L71.4630902,6.49796078 L75.7663451,6.49796078 L75.7663451,7.4614902 L71.4630902,7.4614902 L71.4630902,14.7741176 C71.4630902,16.3912157 71.6731294,17.5678431 72.0967765,18.3045098 C72.5204235,19.0376078 73.1943843,19.4041569 74.1232471,19.4041569 C74.6208157,19.4041569 75.3003843,19.1655686 76.164502,18.6822745" id="Fill-10"></path>
                    <polygon id="Fill-13" points="56.5679451 0.599631373 59.0211216 0.599631373 53.9042196 5.36629804"></polygon>
                    <path d="M32.5252863,18.0997725 C31.7437569,18.9832627 30.8964627,19.4242431 29.9783059,19.4242431 C29.4297569,19.4242431 28.9525804,19.2024784 28.5457569,18.7558902 C28.1368941,18.3098118 27.9319529,17.7872627 27.9319529,17.1816157 C27.9319529,16.257851 28.230698,15.5497333 28.8246196,15.0608314 C29.4216,14.5693804 30.6690902,14.0177725 32.5767765,13.4039686 L33.2726588,13.1765961 L33.3124235,13.3157725 C33.3098745,13.3417725 33.3098745,13.3672627 33.3098745,13.3927529 C33.3098745,14.3165176 33.4347765,15.1689098 33.6850902,15.950949 C33.2843843,17.3151843 32.5252863,18.0997725 32.5252863,18.0997725 L32.5252863,18.0997725 Z M35.1354824,8.24322353 C34.9845804,7.71251765 34.7480314,7.28479216 34.4125804,6.96922353 C33.8074431,6.40385098 32.8551294,6.09949804 31.6728941,6.11938039 C30.2969333,6.13977255 28.5630902,6.60267451 27.4573255,7.46985098 C26.3347373,8.35945882 25.7408157,9.19196863 25.7408157,10.1804784 L25.7408157,10.5500863 L28.2531294,9.75173333 L28.2531294,9.13283137 C28.2531294,8.48181176 28.4917176,8.06938039 28.8587765,7.74820392 C29.2253255,7.42702745 29.728502,7.18843922 30.4758745,7.18843922 C31.1952078,7.18843922 31.8742667,7.3418902 32.3631686,7.71404706 C32.6843451,7.94447843 32.9943059,8.25698824 33.0937176,8.5898902 C33.1905804,8.92483137 33.2415608,9.51620392 33.2415608,10.3624784 L33.2415608,12.4093412 L31.3828157,12.9007922 C29.2309333,13.5232627 27.8299922,14.1090275 26.8975608,14.827851 C25.9651294,15.5441255 25.3824235,16.4026353 25.3824235,17.4288706 C25.3824235,18.3551843 25.675051,19.1260078 26.2608157,19.7398118 C26.8491294,20.3505569 27.5878353,20.6549098 28.480502,20.6549098 C29.364502,20.6549098 30.2714431,20.5182824 31.0672471,20.0492627 C31.863051,19.5776941 33.3807373,18.2277333 33.9751686,16.9654588 L34.0404235,16.837498 C34.3228549,17.4232627 34.6909333,17.9595765 35.1354824,18.4500078 L35.1354824,8.24322353 Z" id="Fill-15"></path>
                </g>
                <g id="logo-element" transform="translate(0.000000, 30.000000)">
                    <g id="Group-3" transform="translate(0.000000, 3.687488)">
                        <mask id="mask-2" fill="white">
                            <use xlink:href="#path-1"></use>
                        </mask>
                        <g id="Clip-2"></g>
                        <path d="M1.049984,5.282624 L10.513664,5.282624 C10.440704,2.565184 8.023424,1.244864 5.905024,1.244864 C3.462784,1.244864 1.520384,2.990144 1.049984,5.282624 L1.049984,5.282624 Z M11.188864,9.991104 C10.017664,11.211584 8.172544,12.110144 5.881344,12.110144 C2.268544,12.110144 -0.000256,9.591104 -0.000256,6.449984 C-0.000256,3.113664 2.642304,0.469824 5.931904,0.469824 C8.498944,0.469824 11.437824,2.090304 11.513984,5.678784 C11.513984,5.781184 11.513984,5.905344 11.487104,6.003904 L0.922624,6.003904 L0.922624,6.426304 C0.922624,9.145024 2.842624,11.313984 5.957504,11.313984 C7.949824,11.313984 9.545984,10.538944 10.587904,9.442624 L11.188864,9.991104 Z" id="Fill-1" fill="#1D1D1B" mask="url(#mask-2)"></path>
                    </g>
                    <mask id="mask-4" fill="white">
                        <use xlink:href="#path-3"></use>
                    </mask>
                    <g id="Clip-5"></g>
                    <polygon id="Fill-4" fill="#1D1D1B" mask="url(#mask-4)" points="21.39776 15.797568 22.31744 15.797568 22.31744 -0.000192 21.39776 -0.000192"></polygon>
                    <path d="M33.349952,8.970112 L42.817472,8.970112 C42.742592,6.252672 40.327232,4.932352 38.208832,4.932352 C35.765952,4.932352 33.820992,6.677632 33.349952,8.970112 L33.349952,8.970112 Z M43.490112,13.678592 C42.321472,14.899072 40.473152,15.797632 38.183872,15.797632 C34.569152,15.797632 32.303552,13.278592 32.303552,10.137472 C32.303552,6.801152 34.946112,4.157312 38.232512,4.157312 C40.799552,4.157312 43.741632,5.777792 43.815232,9.366272 C43.815232,9.468672 43.815232,9.592832 43.787712,9.691392 L33.223872,9.691392 L33.223872,10.113792 C33.223872,12.832512 35.143872,15.001472 38.257472,15.001472 C40.248512,15.001472 41.846592,14.226432 42.892992,13.130112 L43.490112,13.678592 Z" id="Fill-6" fill="#1D1D1B" mask="url(#mask-4)"></path>
                    <path d="M53.496192,15.522624 L53.496192,6.801344 C53.496192,6.053824 53.374592,5.280064 53.100032,4.456384 L53.972352,4.456384 C54.195072,5.082944 54.294912,5.656384 54.322432,6.280384 C55.244032,5.255104 56.687232,4.157504 58.632192,4.157504 C60.550912,4.157504 61.698432,5.206464 62.296192,6.428864 C63.142272,5.332544 64.664832,4.157504 66.653952,4.157504 C68.900352,4.157504 70.491392,5.777344 70.491392,7.994944 L70.491392,15.522624 L69.572992,15.522624 L69.572992,7.994944 C69.572992,6.252864 68.326272,4.954944 66.556672,4.954944 C64.736512,4.954944 63.342592,6.102464 62.443392,7.051584 L62.443392,15.522624 L61.524992,15.522624 L61.524992,7.073984 C61.199872,6.000064 60.278912,4.954944 58.506752,4.954944 C56.714752,4.954944 55.290112,6.102464 54.395392,7.051584 L54.395392,15.522624 L53.496192,15.522624 Z" id="Fill-7" fill="#1D1D1B" mask="url(#mask-4)"></path>
                    <path d="M81.072768,8.970112 L90.547968,8.970112 C90.469248,6.252672 88.051968,4.932352 85.933568,4.932352 C83.492608,4.932352 81.548928,6.677632 81.072768,8.970112 L81.072768,8.970112 Z M91.217408,13.678592 C90.046208,14.899072 88.201728,15.797632 85.912448,15.797632 C82.299648,15.797632 80.029568,13.278592 80.029568,10.137472 C80.029568,6.801152 82.668928,4.157312 85.960448,4.157312 C88.526208,4.157312 91.465088,5.777792 91.541888,9.366272 C91.541888,9.468672 91.541888,9.592832 91.515008,9.691392 L80.951808,9.691392 L80.951808,10.113792 C80.951808,12.832512 82.869248,15.001472 85.985408,15.001472 C87.979008,15.001472 89.572608,14.226432 90.623488,13.130112 L91.217408,13.678592 Z" id="Fill-8" fill="#1D1D1B" mask="url(#mask-4)"></path>
                    <path d="M101.227136,15.522624 L101.227136,6.823744 C101.227136,6.053824 101.102976,5.280064 100.826496,4.456384 L101.695616,4.456384 C101.947776,5.082944 102.023936,5.680064 102.050176,6.300224 C103.096576,5.280064 104.738816,4.157504 106.953216,4.157504 C109.475456,4.157504 111.243136,5.777344 111.243136,7.994944 L111.243136,15.522624 L110.320896,15.522624 L110.320896,7.994944 C110.320896,6.252864 108.901376,4.954944 106.830976,4.954944 C104.765696,4.954944 103.145216,6.102464 102.121216,7.051584 L102.121216,15.522624 L101.227136,15.522624 Z" id="Fill-9" fill="#1D1D1B" mask="url(#mask-4)"></path>
                    <path d="M119.956544,4.157568 L122.397504,4.157568 L122.397504,0.000128 L123.294144,0.000128 L123.294144,4.157568 L127.455424,4.157568 L127.455424,4.880128 L123.294144,4.880128 L123.294144,12.832768 C123.294144,14.450048 124.369344,15.049088 125.312704,15.049088 C126.160064,15.049088 127.159104,14.699008 127.656384,14.325248 L127.854144,15.001088 C127.310144,15.449088 126.185024,15.847808 125.193024,15.847808 C123.945024,15.847808 122.397504,15.099008 122.397504,12.832768 L122.397504,4.880128 L119.956544,4.880128 L119.956544,4.157568 Z" id="Fill-10" fill="#1D1D1B" mask="url(#mask-4)"></path>
                </g>
            </g>
        </g>
    </g>
</svg>