<?xml version="1.0" encoding="UTF-8"?>
<svg width="128px" height="16px" viewBox="0 0 128 16" version="1.1" xmlns="http://www.w3.org/2000/svg" xmlns:xlink="http://www.w3.org/1999/xlink">
    <!-- Generator: Sketch 64 (93537) - https://sketch.com -->
    <title>logo-element</title>
    <desc>Created with Sketch.</desc>
    <defs>
        <polygon id="path-1" points="0 0.469824 11.513984 0.469824 11.513984 12.110144 0 12.110144"></polygon>
        <polygon id="path-3" points="0 15.847488 127.85408 15.847488 127.85408 -0.000192 0 -0.000192"></polygon>
    </defs>
    <g id="Page-1" stroke="none" stroke-width="1" fill="none" fill-rule="evenodd">
        <g id="source" transform="translate(0.000000, -72.000000)">
            <g id="logo-element" transform="translate(0.000000, 72.000000)">
                <g id="Group-3" transform="translate(0.000000, 3.687488)">
                    <mask id="mask-2" fill="white">
                        <use xlink:href="#path-1"></use>
                    </mask>
                    <g id="Clip-2"></g>
                    <path d="M1.049984,5.282624 L10.513664,5.282624 C10.440704,2.565184 8.023424,1.244864 5.905024,1.244864 C3.462784,1.244864 1.520384,2.990144 1.049984,5.282624 L1.049984,5.282624 Z M11.188864,9.991104 C10.017664,11.211584 8.172544,12.110144 5.881344,12.110144 C2.268544,12.110144 -0.000256,9.591104 -0.000256,6.449984 C-0.000256,3.113664 2.642304,0.469824 5.931904,0.469824 C8.498944,0.469824 11.437824,2.090304 11.513984,5.678784 C11.513984,5.781184 11.513984,5.905344 11.487104,6.003904 L0.922624,6.003904 L0.922624,6.426304 C0.922624,9.145024 2.842624,11.313984 5.957504,11.313984 C7.949824,11.313984 9.545984,10.538944 10.587904,9.442624 L11.188864,9.991104 Z" id="Fill-1" fill="#1D1D1B" mask="url(#mask-2)"></path>
                </g>
                <mask id="mask-4" fill="white">
                    <use xlink:href="#path-3"></use>
                </mask>
                <g id="Clip-5"></g>
                <polygon id="Fill-4" fill="#1D1D1B" mask="url(#mask-4)" points="21.39776 15.797568 22.31744 15.797568 22.31744 -0.000192 21.39776 -0.000192"></polygon>
                <path d="M33.349952,8.970112 L42.817472,8.970112 C42.742592,6.252672 40.327232,4.932352 38.208832,4.932352 C35.765952,4.932352 33.820992,6.677632 33.349952,8.970112 L33.349952,8.970112 Z M43.490112,13.678592 C42.321472,14.899072 40.473152,15.797632 38.183872,15.797632 C34.569152,15.797632 32.303552,13.278592 32.303552,10.137472 C32.303552,6.801152 34.946112,4.157312 38.232512,4.157312 C40.799552,4.157312 43.741632,5.777792 43.815232,9.366272 C43.815232,9.468672 43.815232,9.592832 43.787712,9.691392 L33.223872,9.691392 L33.223872,10.113792 C33.223872,12.832512 35.143872,15.001472 38.257472,15.001472 C40.248512,15.001472 41.846592,14.226432 42.892992,13.130112 L43.490112,13.678592 Z" id="Fill-6" fill="#1D1D1B" mask="url(#mask-4)"></path>
                <path d="M53.496192,15.522624 L53.496192,6.801344 C53.496192,6.053824 53.374592,5.280064 53.100032,4.456384 L53.972352,4.456384 C54.195072,5.082944 54.294912,5.656384 54.322432,6.280384 C55.244032,5.255104 56.687232,4.157504 58.632192,4.157504 C60.550912,4.157504 61.698432,5.206464 62.296192,6.428864 C63.142272,5.332544 64.664832,4.157504 66.653952,4.157504 C68.900352,4.157504 70.491392,5.777344 70.491392,7.994944 L70.491392,15.522624 L69.572992,15.522624 L69.572992,7.994944 C69.572992,6.252864 68.326272,4.954944 66.556672,4.954944 C64.736512,4.954944 63.342592,6.102464 62.443392,7.051584 L62.443392,15.522624 L61.524992,15.522624 L61.524992,7.073984 C61.199872,6.000064 60.278912,4.954944 58.506752,4.954944 C56.714752,4.954944 55.290112,6.102464 54.395392,7.051584 L54.395392,15.522624 L53.496192,15.522624 Z" id="Fill-7" fill="#1D1D1B" mask="url(#mask-4)"></path>
                <path d="M81.072768,8.970112 L90.547968,8.970112 C90.469248,6.252672 88.051968,4.932352 85.933568,4.932352 C83.492608,4.932352 81.548928,6.677632 81.072768,8.970112 L81.072768,8.970112 Z M91.217408,13.678592 C90.046208,14.899072 88.201728,15.797632 85.912448,15.797632 C82.299648,15.797632 80.029568,13.278592 80.029568,10.137472 C80.029568,6.801152 82.668928,4.157312 85.960448,4.157312 C88.526208,4.157312 91.465088,5.777792 91.541888,9.366272 C91.541888,9.468672 91.541888,9.592832 91.515008,9.691392 L80.951808,9.691392 L80.951808,10.113792 C80.951808,12.832512 82.869248,15.001472 85.985408,15.001472 C87.979008,15.001472 89.572608,14.226432 90.623488,13.130112 L91.217408,13.678592 Z" id="Fill-8" fill="#1D1D1B" mask="url(#mask-4)"></path>
                <path d="M101.227136,15.522624 L101.227136,6.823744 C101.227136,6.053824 101.102976,5.280064 100.826496,4.456384 L101.695616,4.456384 C101.947776,5.082944 102.023936,5.680064 102.050176,6.300224 C103.096576,5.280064 104.738816,4.157504 106.953216,4.157504 C109.475456,4.157504 111.243136,5.777344 111.243136,7.994944 L111.243136,15.522624 L110.320896,15.522624 L110.320896,7.994944 C110.320896,6.252864 108.901376,4.954944 106.830976,4.954944 C104.765696,4.954944 103.145216,6.102464 102.121216,7.051584 L102.121216,15.522624 L101.227136,15.522624 Z" id="Fill-9" fill="#1D1D1B" mask="url(#mask-4)"></path>
                <path d="M119.956544,4.157568 L122.397504,4.157568 L122.397504,0.000128 L123.294144,0.000128 L123.294144,4.157568 L127.455424,4.157568 L127.455424,4.880128 L123.294144,4.880128 L123.294144,12.832768 C123.294144,14.450048 124.369344,15.049088 125.312704,15.049088 C126.160064,15.049088 127.159104,14.699008 127.656384,14.325248 L127.854144,15.001088 C127.310144,15.449088 126.185024,15.847808 125.193024,15.847808 C123.945024,15.847808 122.397504,15.099008 122.397504,12.832768 L122.397504,4.880128 L119.956544,4.880128 L119.956544,4.157568 Z" id="Fill-10" fill="#1D1D1B" mask="url(#mask-4)"></path>
            </g>
        </g>
    </g>
</svg>