<?xml version="1.0" encoding="UTF-8"?>
<svg width="16px" height="16px" viewBox="0 0 16 16" version="1.1" xmlns="http://www.w3.org/2000/svg" xmlns:xlink="http://www.w3.org/1999/xlink">
    <!-- Generator: Sketch 64 (93537) - https://sketch.com -->
    <title>tag-element</title>
    <desc>Created with Sketch.</desc>
    <g id="Page-1" stroke="none" stroke-width="1" fill="none" fill-rule="evenodd">
        <g id="source" transform="translate(-16.000000, -88.000000)">
            <g id="tag-element" transform="translate(16.000000, 88.000000)">
                <circle id="Oval" fill="#000000" cx="8" cy="8" r="8"></circle>
                <path d="M8.147,11.766 C10.1256667,11.766 11.3623333,10.9446667 11.857,9.302 L11.857,9.302 L9.407,9.302 C9.127,9.75 8.71166667,9.974 8.161,9.974 C7.13433333,9.974 6.621,9.428 6.621,8.336 L6.621,8.336 L11.955,8.336 L11.955,8.07 C11.955,7.44466667 11.8663333,6.88233333 11.689,6.383 C11.5116667,5.88366667 11.255,5.46133333 10.919,5.116 C10.583,4.77066667 10.1723333,4.507 9.687,4.325 C9.20166667,4.143 8.65566667,4.052 8.049,4.052 C7.433,4.052 6.88,4.143 6.39,4.325 C5.9,4.507 5.48233333,4.766 5.137,5.102 C4.79166667,5.438 4.52566667,5.84633333 4.339,6.327 C4.15233333,6.80766667 4.059,7.34666667 4.059,7.944 C4.059,8.52266667 4.157,9.04533333 4.353,9.512 C4.549,9.97866667 4.82666667,10.38 5.186,10.716 C5.54533333,11.052 5.977,11.311 6.481,11.493 C6.985,11.675 7.54033333,11.766 8.147,11.766 Z M9.589,6.866 L6.691,6.866 C6.75633333,6.49266667 6.91266667,6.20333333 7.16,5.998 C7.40733333,5.79266667 7.727,5.69 8.119,5.69 C8.49233333,5.69 8.80966667,5.79733333 9.071,6.012 C9.33233333,6.22666667 9.505,6.51133333 9.589,6.866 L9.589,6.866 Z" id="e" fill="#FFFFFF" fill-rule="nonzero"></path>
            </g>
        </g>
    </g>
</svg>