<?xml version="1.0" encoding="UTF-8"?>
<svg width="16px" height="16px" viewBox="0 0 16 16" version="1.1" xmlns="http://www.w3.org/2000/svg" xmlns:xlink="http://www.w3.org/1999/xlink">
    <!-- Generator: Sketch 64 (93537) - https://sketch.com -->
    <title>tag-planit</title>
    <desc>Created with Sketch.</desc>
    <g id="Page-1" stroke="none" stroke-width="1" fill="none" fill-rule="evenodd">
        <g id="source" transform="translate(0.000000, -88.000000)">
            <g id="tag-planit" transform="translate(0.000000, 88.000000)">
                <circle id="Oval" fill="#009BE0" cx="8" cy="8" r="8"></circle>
                <path d="M7.1025,13.828 L7.1025,9.85 C7.65716667,10.422 8.3505,10.708 9.1825,10.708 C9.65916667,10.708 10.1011667,10.617 10.5085,10.435 C10.9158333,10.253 11.269,10.0016667 11.568,9.681 C11.867,9.36033333 12.101,8.98766667 12.27,8.563 C12.439,8.13833333 12.5235,7.679 12.5235,7.185 C12.5235,6.691 12.439,6.22733333 12.27,5.794 C12.101,5.36066667 11.8648333,4.98366667 11.5615,4.663 C11.2581667,4.34233333 10.9006667,4.08883333 10.489,3.9025 C10.0773333,3.71616667 9.63316667,3.623 9.1565,3.623 C8.28983333,3.623 7.60516667,3.93933333 7.1025,4.572 L7.1025,4.572 L7.1025,3.831 L4.7495,3.831 L4.7495,13.828 L7.1025,13.828 Z M8.5585,8.68 C8.3505,8.68 8.15333333,8.63883333 7.967,8.5565 C7.78066667,8.47416667 7.61816667,8.36583333 7.4795,8.2315 C7.34083333,8.09716667 7.2325,7.939 7.1545,7.757 C7.0765,7.575 7.0375,7.38 7.0375,7.172 C7.0375,6.964 7.07866667,6.76683333 7.161,6.5805 C7.24333333,6.39416667 7.35166667,6.23166667 7.486,6.093 C7.62033333,5.95433333 7.7785,5.846 7.9605,5.768 C8.1425,5.69 8.3375,5.651 8.5455,5.651 C8.76216667,5.651 8.96366667,5.69216667 9.15,5.7745 C9.33633333,5.85683333 9.49883333,5.96733333 9.6375,6.106 C9.77616667,6.24466667 9.88233333,6.40716667 9.956,6.5935 C10.0296667,6.77983333 10.0665,6.977 10.0665,7.185 C10.0665,7.38433333 10.0253333,7.575 9.943,7.757 C9.86066667,7.939 9.75233333,8.09933333 9.618,8.238 C9.48366667,8.37666667 9.3255,8.485 9.1435,8.563 C8.9615,8.641 8.7665,8.68 8.5585,8.68 Z" id="p" fill="#FFFFFF" fill-rule="nonzero"></path>
            </g>
        </g>
    </g>
</svg>